<?xml version="1.0" encoding="UTF-8" standalone="no"?>
<!-- Created with Inkscape (http://www.inkscape.org/) -->

<svg
   width="512"
   height="512"
   viewBox="0 0 135.46666 135.46667"
   version="1.1"
   id="svg1"
   xml:space="preserve"
   xmlns="http://www.w3.org/2000/svg"
   xmlns:svg="http://www.w3.org/2000/svg"><defs
     id="defs1" /><g
     id="layer1"
     style="display:inline;opacity:1"><path
       id="path1"
       style="display:inline;opacity:1;fill:#fafafa;fill-opacity:1;stroke-width:0.264583"
       d="M 67.733332 0 A 67.73333 67.73333 0 0 0 0 67.733332 A 67.73333 67.73333 0 0 0 67.733332 135.46666 A 67.73333 67.73333 0 0 0 135.46666 67.733332 A 67.73333 67.73333 0 0 0 67.733332 0 z M 67.739534 15.094686 C 68.41643 15.090899 69.154202 15.096341 70.029316 15.108122 C 90.064634 16.183069 102.53789 26.249235 103.33788 40.598555 C 104.02378 52.902551 93.832989 63.981433 78.949185 68.854711 C 80.295753 70.367686 82.515666 74.155871 83.235745 77.659858 C 85.220055 87.315741 89.557802 97.165731 93.067703 100.48327 C 93.675681 101.05794 96.289587 103.70816 98.449803 104.10682 C 99.690532 104.3358 101.57471 104.77549 102.08214 106.06536 C 102.4509 107.33424 102.57772 108.30435 102.06095 109.4388 C 100.319 112.36562 97.775057 116.54629 92.263618 115.09582 C 87.382134 115.04162 81.293723 108.87978 77.40406 99.735513 C 72.349447 87.852545 69.100763 74.059927 68.468688 71.12589 C 68.466996 71.126085 68.465212 71.126214 68.46352 71.126407 L 66.701871 63.048347 C 79.980845 61.884752 91.117247 51.82804 89.752143 40.20323 C 89.259008 30.449549 79.984274 25.354604 67.781908 24.712186 C 66.613484 24.650697 64.395835 24.947201 63.217329 25.118363 C 50.410607 26.409671 41.359424 34.119768 39.245149 45.70677 C 38.828184 47.073813 39.289028 48.30897 39.324214 49.318436 C 41.290651 53.651406 41.300424 54.716526 39.303027 57.131913 C 36.87502 60.065676 32.745297 60.125839 29.471586 56.657523 C 28.280221 55.387917 26.893236 53.332349 26.412858 51.682633 C 25.377974 49.446854 24.841338 47.201699 24.922509 45.05358 C 24.042555 29.261423 38.074608 19.802536 61.224169 15.45022 C 64.225988 15.199977 65.708839 15.106031 67.739534 15.094686 z M 54.359472 40.545328 A 8.598958 8.598958 0 0 1 62.95843 49.144287 A 8.598958 8.598958 0 0 1 54.359472 57.743245 A 8.598958 8.598958 0 0 1 45.760514 49.144287 A 8.598958 8.598958 0 0 1 54.359472 40.545328 z M 63.123795 62.959981 C 62.438438 72.776709 62.687633 89.65508 62.753275 102.80251 L 62.752758 102.864 L 62.811669 108.86519 C 62.834665 109.1355 62.903184 109.6403 63.002355 110.22996 C 63.257014 112.1525 64.895408 113.82018 68.544652 116.0017 L 68.531217 116.09214 L 46.478299 116.04408 L 47.41726 109.69873 L 47.41726 104.19674 L 47.366617 104.20139 C 47.440992 92.250313 47.75455 78.538993 47.451367 68.326578 C 46.888337 68.090226 45.037934 67.636959 44.183349 67.431025 C 43.399006 67.275217 42.243802 67.063134 41.326676 67.076525 L 41.251745 64.692174 L 51.016007 64.26481 L 63.123795 62.959981 z M 57.076619 106.39609 L 54.95065 106.40849 L 57.076619 106.40849 L 57.076619 106.39609 z " /></g></svg>
